<svg width="21" height="18" xmlns="http://www.w3.org/2000/svg"><path d="M16.804 6.525c-2.965 1.7-2.46 6.662.756 6.662 1.386 0 2.587-1.042 3.121-2.375 1.234-3.078-1.332-5.748-3.877-4.287zm-3.045.615c3.557 0 4.622-6.04 1.243-7.034-1.54-.452-3.29.633-3.853 2.617-.63 2.223.61 4.416 2.61 4.416z"/><path d="M12.844 17.89c-.494-.136-1.37-.224-2.288-.237-.97-.014-1.986.055-2.643.237-1.774.495-4.189-.701-3.66-3.186.49-2.296 2.252-2.165 2.668-4.341.42-2.2 2.05-3.262 3.635-3.179 1.467.077 2.894 1.135 3.283 3.179.414 2.178 2.172 2.046 2.66 4.341.533 2.487-1.887 3.676-3.655 3.186zM7.5 7.14c1.005 0 1.87-.585 2.35-1.48C11.277 3.002 8.933-.68 6.256.109 2.871 1.104 3.944 7.14 7.5 7.14z"/><path d="M5.891 11.21c1.142-2.794-1.565-6.208-4.15-5.134C-1.373 7.37.001 12.95 3.425 12.95c1.098 0 2.032-.677 2.466-1.739z"/></svg>