<svg width="22" height="22" fill="none" xmlns="http://www.w3.org/2000/svg"><path d="M11 22c6.075 0 11-4.925 11-11S17.075 0 11 0 0 4.925 0 11s4.925 11 11 11z" fill="#1A212F"/><path fill-rule="evenodd" clip-rule="evenodd" d="M10.585 15.824h.863s.26-.028.394-.172c.122-.131.119-.379.119-.379s-.017-1.159.52-1.33c.53-.167 1.211 1.12 1.932 1.616.546.374.96.292.96.292l1.93-.027s1.008-.062.53-.855c-.04-.065-.279-.587-1.434-1.66-1.21-1.122-1.048-.94.41-2.882.886-1.183 1.241-1.905 1.13-2.214-.105-.295-.758-.217-.758-.217l-2.172.014s-.16-.022-.28.049c-.117.07-.192.233-.192.233s-.344.915-.802 1.694c-.967 1.642-1.354 1.728-1.512 1.627-.368-.238-.276-.955-.276-1.465 0-1.591.242-2.255-.47-2.426-.236-.058-.41-.095-1.013-.101-.775-.008-1.431.002-1.803.184-.247.121-.437.39-.321.406.143.02.468.088.64.323.223.302.216.982.216.982s.127 1.874-.3 2.107c-.292.16-.693-.167-1.556-1.657a13.85 13.85 0 01-.775-1.606s-.064-.158-.179-.242c-.14-.103-.334-.135-.334-.135l-2.063.013s-.31.01-.424.144c-.101.12-.008.367-.008.367s1.616 3.78 3.445 5.686c1.678 1.746 3.583 1.631 3.583 1.631z" fill="#FFFDFB"/></svg>