<svg width="299" height="293" fill="none" xmlns="http://www.w3.org/2000/svg"><path d="M79.042 167.239c36.533-5.289 65.162 40.219 37.772 61.618-11.813 9.23-28.955 8.363-42.351.599-30.94-17.931-26.79-57.681 4.58-62.217zm30.012-15.043c-30.297 23.67-79.446-20.539-57.251-51.461 10.113-14.087 32.226-16.52 50.178-3.415 20.128 14.685 24.106 41.568 7.073 54.876z" fill="#FAC663" fill-opacity=".15"/><path d="M188.185 237.418c3.302-4.448 10.185-11.029 17.918-17.244 8.168-6.575 17.279-12.743 24.083-15.571 18.397-7.612 31.03-33.841 10.034-51.412-19.413-16.242-33.544-3.413-51.532-19.125-18.168-15.889-39.1-14.054-52.05-2.802-11.983 10.416-17.125 28.901-6.877 48.847 10.925 21.252-4.919 31.824 6.146 54.578 11.966 24.654 40.472 18.653 52.278 2.729zm-25.807-126.88c-8.57 6.695-19.807 7.483-29.832 3.083-29.803-13.087-34.263-59.954-6.235-71.068 35.441-14.07 66.347 44.327 36.067 67.985z" fill="#FAC663" fill-opacity=".15"/><path d="M203.082 134.41c-28.269-16.132-27.859-63.136 1.29-71.22 35.11-9.74 60.429 46.782 31.261 69.571-9.361 7.313-21.804 7.782-32.551 1.649z" fill="#FAC663" fill-opacity=".15"/></svg>