<svg width="373" height="348" fill="none" xmlns="http://www.w3.org/2000/svg"><path d="M114.689 108.455c30.837 37.839-1.289 101.404-44.174 84.942-18.497-7.1-29.17-27.142-29.477-47.644-.709-47.352 47.178-69.792 73.651-37.298zm37.461 23.778c-47.437-18.209-30.736-104.17 19.412-100.106 22.847 1.853 40.643 25.28 37.992 54.602-2.962 32.867-30.736 55.741-57.404 45.504z" fill="#FAC663" fill-opacity=".15"/><path d="M109.34 280.224c7.287.708 19.429 4.024 31.732 8.553 13.009 4.776 26.198 10.902 34.03 16.69 21.139 15.676 59.464 12.095 65.108-23.729 5.215-33.119-18.939-40.39-13.357-71.532 5.659-31.466-10.654-53.963-32.216-60.97-19.957-6.484-44.409.307-60.055 25.558-16.664 26.911-39.424 16.154-57.697 44.249-19.813 30.416 6.374 58.661 32.455 61.181zm126.297-115.94c-13.418-5.151-21.952-17.363-23.78-31.742-5.429-42.754 44.672-79.823 76.331-55.613 40.05 30.602-5.14 105.554-52.551 87.355z" fill="#FAC663" fill-opacity=".15"/><path d="M236.25 226.774c-.933-43.094 52.635-74.732 81.621-47.181 34.916 33.186-11.948 100.518-57.617 82.987-14.656-5.626-23.649-19.425-24.004-35.806z" fill="#FAC663" fill-opacity=".15"/></svg>