<svg width="21" height="23" fill="none" xmlns="http://www.w3.org/2000/svg"><path d="M3.012 22.016c-1.056-1.752-1.764-3.588-2.124-5.508a17.22 17.22 0 01-.108-5.76 16.56 16.56 0 011.836-5.436c.96-1.728 2.232-3.276 3.816-4.644L8.628 2c.384.264.552.588.504.972-.048.36-.18.66-.396.9-.576.72-1.092 1.62-1.548 2.7a13.03 13.03 0 00-.864 3.456 13.337 13.337 0 00.144 3.888c.24 1.344.744 2.664 1.512 3.96.336.552.432 1.044.288 1.476-.144.432-.456.744-.936.936l-4.32 1.728zm11.196 0c-1.056-1.752-1.764-3.588-2.124-5.508a17.22 17.22 0 01-.108-5.76 16.56 16.56 0 011.836-5.436c.96-1.728 2.232-3.276 3.816-4.644L19.824 2c.384.264.552.588.504.972-.048.36-.18.66-.396.9-.576.72-1.092 1.62-1.548 2.7a13.03 13.03 0 00-.864 3.456 13.337 13.337 0 00.144 3.888c.24 1.344.744 2.664 1.512 3.96.336.552.432 1.044.288 1.476-.144.432-.456.744-.936.936l-4.32 1.728z" fill="#FAC663"/></svg>